<?xml version="1.0" encoding="UTF-8" standalone="no"?>
<!-- Created with Inkscape (http://www.inkscape.org/) -->

<svg
   xmlns:dc="http://purl.org/dc/elements/1.1/"
   xmlns:cc="http://creativecommons.org/ns#"
   xmlns:rdf="http://www.w3.org/1999/02/22-rdf-syntax-ns#"
   xmlns:svg="http://www.w3.org/2000/svg"
   xmlns="http://www.w3.org/2000/svg"
   xmlns:sodipodi="http://sodipodi.sourceforge.net/DTD/sodipodi-0.dtd"
   xmlns:inkscape="http://www.inkscape.org/namespaces/inkscape"
   width="722.06995"
   height="271.48196"
   id="svg3999"
   version="1.1"
   inkscape:version="0.48.4 r9939"
   sodipodi:docname="disl.svg">
  <defs
     id="defs4001" />
  <sodipodi:namedview
     id="base"
     pagecolor="#ffffff"
     bordercolor="#666666"
     borderopacity="1.0"
     inkscape:pageopacity="0.0"
     inkscape:pageshadow="2"
     inkscape:zoom="1.979899"
     inkscape:cx="393.91341"
     inkscape:cy="134.67421"
     inkscape:document-units="px"
     inkscape:current-layer="layer1"
     showgrid="false"
     inkscape:window-width="1920"
     inkscape:window-height="1121"
     inkscape:window-x="-2"
     inkscape:window-y="26"
     inkscape:window-maximized="1"
     fit-margin-top="0"
     fit-margin-left="0"
     fit-margin-right="0"
     fit-margin-bottom="0"
     showguides="true"
     inkscape:guide-bbox="true" />
  <metadata
     id="metadata4004">
    <rdf:RDF>
      <cc:Work
         rdf:about="">
        <dc:format>image/svg+xml</dc:format>
        <dc:type
           rdf:resource="http://purl.org/dc/dcmitype/StillImage" />
        <dc:title></dc:title>
      </cc:Work>
    </rdf:RDF>
  </metadata>
  <g
     inkscape:label="Layer 1"
     inkscape:groupmode="layer"
     id="layer1"
     style="display:inline"
     transform="translate(-10.393584,-373.76405)">
    <path
       inkscape:connector-curvature="0"
       id="path3178"
       style="fill:#eea212"
       d="m 470.56685,608.07294 c 1.8297,-1.4702 6.13923,-5.3947 9.57673,-8.72111 l 6.25,-6.04802 0,-46.60548 0,-46.60547 -7.88516,-7.67342 -7.88517,-7.67341 -5.61483,0 -5.61484,0 0,63 0,63 3.92327,0 c 2.75623,0 4.91288,-0.79516 7.25,-2.67309 z m -35.17321,-107.32691 0,-20.5 0,-20.50001 23.73659,0 23.7366,0 13.2634,13.23611 13.26341,13.23611 0,59.526 0,59.52599 -15.26173,15.2379 -15.26173,15.2379 -21.73827,0 -21.73827,0 0,-19.5 0,-19.5" />
    <text
       xml:space="preserve"
       style="font-size:53.35020827999999682px;font-style:normal;font-weight:normal;line-height:200%;letter-spacing:0px;word-spacing:0px;fill:#eea212;fill-opacity:1;stroke:none;font-family:Sans"
       x="528.75574"
       y="614.54333"
       id="text2991"
       sodipodi:linespacing="200%"
       transform="scale(0.9683736,1.0326593)"><tspan
         sodipodi:role="line"
         id="tspan2993"
         x="528.75574"
         y="614.54333"
         style="font-size:159.99999969px;font-style:normal;font-variant:normal;font-weight:bold;font-stretch:normal;line-height:200%;letter-spacing:0px;font-family:Liberation Sans;-inkscape-font-specification:Liberation Sans Bold;fill:#eea212;fill-opacity:1"
         dx="0">iSL</tspan></text>
    <path
       inkscape:connector-curvature="0"
       style="fill:#000000;fill-opacity:1"
       d="m 228.96728,641.74603 c 0.34179,-1.925 5.25358,-23.075 10.91509,-47 5.66151,-23.925 10.58927,-44.89836 10.95058,-46.60748 0.64857,-3.06791 0.59725,-3.11565 -4.03079,-3.75 -2.57825,-0.35338 -6.6987,-0.64252 -9.15656,-0.64252 -4.37812,0 -4.45463,-0.0558 -3.76886,-2.75 2.86932,-11.27273 12.51684,-55.81183 12.51684,-57.78571 0,-2.45379 -0.0423,-2.46429 -9.94098,-2.46429 -5.46754,0 -10.2071,-0.43058 -10.53234,-0.95684 -0.32525,-0.52626 3.49751,-13.35127 8.49502,-28.50001 l 9.08639,-27.54316 23.19596,0.0153 c 12.75777,0.008 23.70878,0.34592 24.33557,0.75 0.75472,0.48655 -1.58032,4.6188 -6.91354,12.23469 -4.42925,6.325 -9.53358,13.94468 -11.34297,16.93263 l -3.2898,5.43263 8.55343,3.21746 c 4.70439,1.7696 9.0709,3.74264 9.70335,4.38454 0.86903,0.88201 0.14783,3.04372 -2.95255,8.84992 -13.28435,24.87811 -24.39754,46.2855 -24.39754,46.9971 0,0.45129 5.7375,2.53529 12.75,4.63111 7.0125,2.09582 13.33698,4.12208 14.05441,4.5028 0.96249,0.51077 -1.31831,5.78516 -8.70136,20.12202 -16.67472,32.38 -46.48898,88.48316 -48.37691,91.03353 l -1.77387,2.39627 z"
       id="path3190" />
    <path
       inkscape:connector-curvature="0"
       style="fill:#000000;fill-opacity:1"
       d="m 169.40156,615.26441 -23.49202,-23.51838 -34.75798,0 -34.757976,0 0,-32 0,-32 -12.33959,0 -12.33959,0 -0.628,29.48699 c -0.48791,22.90884 -0.95313,30.11573 -2.08542,32.30532 -3.87328,7.4901 -17.6483,6.815 -20.64763,-1.01193 -0.87848,-2.29243 -1.39603,-13.15401 -1.71848,-36.06478 l -0.46141,-32.7844 -7.8894,-7.2156 -7.8894,-7.2156 -5.4e-4,-42.77072 -5.4e-4,-42.7707 20.25,0.2707 20.25,0.27071 0.26367,32.75 0.26366,32.75001 12.48634,0 12.48633,0 0,-31.00001 0,-31 54.623246,0 54.62326,0 -0.42678,-11.97019 c -0.23473,-6.58361 -0.63024,-12.17365 -0.8789,-12.42232 -0.24867,-0.24866 -10.79958,-0.72594 -23.44648,-1.06061 -34.79912,-0.92087 -37.30373,-1.20241 -40.67337,-4.57205 -4.91161,-4.91162 -3.33126,-14.8864 2.85402,-18.01386 2.37174,-1.19921 17.4766,-1.48235 94.14367,-1.7647 101.17567,-0.37261 94.00181,-0.81871 98.22533,6.10806 3.18076,5.2166 2.42275,10.213 -2.34328,15.44567 l -2.04935,2.25 -37.41291,0 -37.41291,0 0.25213,16.75 c 0.2389,15.87134 0.11005,17.18277 -2.45628,25 l -2.70841,8.25 -34.2065,0.002 c -18.81357,9.2e-4 -48.04399,0.29854 -64.95649,0.66133 l -30.74999,0.65961 0,58.72013 0,58.72012 27.87306,0.73368 27.87308,0.73368 23.36894,23.38483 23.36895,23.38483 13.25798,0 c 7.29189,0 13.24638,0.3375 13.23221,0.75 -0.0142,0.4125 -1.27949,5.7 -2.81181,11.75 l -2.78602,11 -15.9382,0.26838 -15.9382,0.26838 -23.49202,-23.51838 z"
       id="path3188" />
    <path
       inkscape:connector-curvature="0"
       style="fill:#000000;fill-opacity:1"
       d="m 435.39358,525.74603 -22.84568,0 -22.84568,0 -0.65026,-12.75 c -0.35765,-7.0125 -0.65209,-16.18318 -0.65432,-20.37928 l -0.004,-7.62928 -12.53654,-0.41736 -12.53655,-0.41736 -18.22333,-18.20337 -18.22333,-18.20336 -21.74012,0 c -15.00817,0 -21.74013,-0.33714 -21.74013,-1.08875 0,-0.59881 3.40268,-5.99881 7.5615,-12 l 7.56151,-10.91125 20.19891,0 20.19892,0 17.97916,18 17.97916,18 19.26042,0 19.26042,0 0,20.50001 0,20.5 11,0 11,0"
       id="path3186" />
    <path
       inkscape:connector-curvature="0"
       style="fill:#000000;fill-opacity:1"
       d="m 435.39364,596.74603 -11,0 -11,0 0,21 0,21 -87.5,0 c -48.125,0 -87.5,-0.25485 -87.5,-0.56634 l -6e-5,0 c 0,-0.31149 2.58381,-5.43259 5.7418,-11.38022 l 5.74179,-10.81388 69.75821,-0.74213 69.7582,-0.74214 0,-20.87764 0,-20.87765 23,0 23,0"
       id="path3182" />
  </g>
</svg>
